PathFileType	4	(X/Y/Z)	Kaydara	
DataRate	CameraRate	NumFrames	NumMarkers	Units	OrigDataRate	OrigDataStartFrame	OrigNumFrames	
240.00	240.00	4	72	mm	240.00	1	359	
Frame#	Time	Hips			RightUpLeg			RightLeg			RightFoot			RightFoot_End			LeftUpLeg			LeftLeg			LeftFoot			LeftFoot_End			Spine			Spine1			Spine2			Spine3			Neck			Head			Head_End			RightShoulder			RightArm			RightForeArm			RightHand			RightHandThumb1			RightHandThumb2			RightHandThumb3			RightHandThumb3_End			RightInHandIndex			RightHandIndex1			RightHandIndex2			RightHandIndex3			RightHandIndex3_End			RightInHandMiddle			RightHandMiddle1			RightHandMiddle2			RightHandMiddle3			RightHandMiddle3_End			RightInHandRing			RightHandRing1			RightHandRing2			RightHandRing3			RightHandRing3_End			RightInHandPinky			RightHandPinky1			RightHandPinky2			RightHandPinky3			RightHandPinky3_End			LeftShoulder			LeftArm			LeftForeArm			LeftHand			LeftHandThumb1			LeftHandThumb2			LeftHandThumb3			LeftHandThumb3_End			LeftInHandIndex			LeftHandIndex1			LeftHandIndex2			LeftHandIndex3			LeftHandIndex3_End			LeftInHandMiddle			LeftHandMiddle1			LeftHandMiddle2			LeftHandMiddle3			LeftHandMiddle3_End			LeftInHandRing			LeftHandRing1			LeftHandRing2			LeftHandRing3			LeftHandRing3_End			LeftInHandPinky			LeftHandPinky1			LeftHandPinky2			LeftHandPinky3			LeftHandPinky3_End			
		X1	Y1	Z1	X2	Y2	Z2	X3	Y3	Z3	X4	Y4	Z4	X5	Y5	Z5	X6	Y6	Z6	X7	Y7	Z7	X8	Y8	Z8	X9	Y9	Z9	X10	Y10	Z10	X11	Y11	Z11	X12	Y12	Z12	X13	Y13	Z13	X14	Y14	Z14	X15	Y15	Z15	X16	Y16	Z16	X17	Y17	Z17	X18	Y18	Z18	X19	Y19	Z19	X20	Y20	Z20	X21	Y21	Z21	X22	Y22	Z22	X23	Y23	Z23	X24	Y24	Z24	X25	Y25	Z25	X26	Y26	Z26	X27	Y27	Z27	X28	Y28	Z28	X29	Y29	Z29	X30	Y30	Z30	X31	Y31	Z31	X32	Y32	Z32	X33	Y33	Z33	X34	Y34	Z34	X35	Y35	Z35	X36	Y36	Z36	X37	Y37	Z37	X38	Y38	Z38	X39	Y39	Z39	X40	Y40	Z40	X41	Y41	Z41	X42	Y42	Z42	X43	Y43	Z43	X44	Y44	Z44	X45	Y45	Z45	X46	Y46	Z46	X47	Y47	Z47	X48	Y48	Z48	X49	Y49	Z49	X50	Y50	Z50	X51	Y51	Z51	X52	Y52	Z52	X53	Y53	Z53	X54	Y54	Z54	X55	Y55	Z55	X56	Y56	Z56	X57	Y57	Z57	X58	Y58	Z58	X59	Y59	Z59	X60	Y60	Z60	X61	Y61	Z61	X62	Y62	Z62	X63	Y63	Z63	X64	Y64	Z64	X65	Y65	Z65	X66	Y66	Z66	X67	Y67	Z67	X68	Y68	Z68	X69	Y69	Z69	X70	Y70	Z70	X71	Y71	Z71	X72	Y72	Z72	

1	0.0	7198.941	914.58397	126.699	7254.355393395223	897.1919098345495	53.2417987771248	7159.768279646067	500.35698661576635	-42.061003990927595	7143.109064543281	108.90821892156384	-117.95706981897747	6991.290768008718	31.878761052432132	-31.03030914322107	7158.138252508162	905.9806047277751	211.5513726353656	7067.601076215547	504.0040138161426	286.6040160023634	6996.340453735034	79.36284154613236	377.3138167792084	6874.713954771645	-3.129682158349813	255.0813748612488	7130.932149228312	1031.2757245842706	79.14673692084065	7067.81938587674	1087.0135585775306	30.56430437874388	6999.023545005149	1137.8269184449382	-23.59203393446506	6929.271322242127	1174.561199537193	-80.37721189359462	6853.7201138647315	1214.365924480761	-139.39426945803794	6783.364976314056	1251.0530523264176	-190.5349114890717	6644.6831774223565	1329.6689368315779	-197.0130056675801	6899.059558172947	1202.2864461469755	-144.44745425738844	6956.904700724948	1192.5835763401737	-263.51589661156135	7040.497791545263	930.7887597019796	-296.1889789063441	7046.328885242897	781.8685318109392	-476.9239300981764	7052.309891619097	788.3549939240044	-506.46229285302877	7034.648264617528	787.1227607064632	-532.3861792209732	7022.0819090419955	783.2860404105264	-549.4909460891533	7011.377646769306	777.5394240733142	-562.9389213355227	7054.339381313912	778.1125571560281	-506.3413041664865	7055.036184809484	762.0178225520027	-545.3146939269524	7042.503017188784	751.6726654907012	-569.3943463391126	7027.728763562994	749.3857282138641	-580.4434532277678	7010.79028118413	750.2885183305433	-586.9438179879476	7052.970721446835	770.6120996279019	-502.2600909349341	7052.91376597369	750.8565366779005	-538.0668993696986	7039.038476338255	738.631517147734	-563.6738699047667	7021.11831455408	735.4230764172108	-576.6832963176075	7002.538082706619	736.1924585262302	-583.6398624655563	7052.116562448116	765.6923817693573	-498.41461772033637	7051.70608965758	743.6250366363053	-527.261434008848	7039.407466602656	732.0440556053982	-548.8402709627716	7022.01323678744	728.4577175780898	-560.9957491259379	7004.491564812972	728.9482030075009	-567.3503676122351	7050.083248869071	760.7354451520971	-492.5978310480813	7048.891620225178	737.3290551672992	-515.5913765618197	7038.7245470386015	726.7078440902492	-531.589933254562	7025.882912920713	723.4400793666566	-539.8365376709131	7010.272810152111	723.4994103730636	-545.1090773424146	6858.485633020212	1200.1792096923118	-93.9403592299294	6810.21051740974	1134.0841827403256	9.945805434584788	6957.89232443244	972.6073703748162	-158.3987199577922	7052.45125058928	848.6131372838954	-370.1550989015593	7079.6480301376905	859.1749569753187	-391.81275510344517	7116.905282434886	851.9545204572303	-401.2558402496272	7141.98412070254	843.5931105561234	-408.0144380342325	7162.149467290789	833.7711905934024	-413.80485292196977	7078.189040924337	849.0144100910446	-396.16717647444284	7117.971715961149	833.7188932369434	-429.17683428376824	7150.17481776547	818.7017297293127	-442.9961099264168	7170.294914572284	810.8672032848799	-443.8538494659944	7187.015388661449	805.3954687346796	-439.3471827818314	7074.660712679154	840.2734441936948	-395.07941733198015	7111.553776460505	820.6279134952426	-426.6902866950012	7146.10481324004	803.1319999624404	-441.50783261741145	7170.096346803209	793.1476653781539	-442.4168984306555	7188.254179245791	786.9018439571807	-437.42464294831075	7071.109128776891	834.5078412081019	-393.56925372621674	7100.9619943431035	811.9538210737911	-420.8825692252846	7130.417176369387	795.6013488032366	-433.47884511260247	7153.208613828982	785.3849286691815	-434.1864188451351	7170.1155504709	779.234717351351	-429.4122061206392	7066.206892138702	828.1516251601573	-390.07916463089936	7090.431997971757	803.6073581937551	-413.3276815595359	7112.859657792705	788.8903567069375	-422.7971635114675	7128.923199355031	780.6535767665666	-423.01473720382523	7143.577345593096	774.753780526446	-418.61374845222144
2	0.004	7198.941	914.58397	126.699	7254.389020961741	897.2273579718228	53.24945965637769	7159.803907528931	500.38645999111077	-42.032692379717005	7143.0892267166855	108.93576102183178	-117.91682304661158	6991.271341103628	31.910048951587573	-30.98604920815212	7158.106925570979	905.9446057702902	211.53999961639457	7067.561024656521	503.9720523908888	286.60439094596126	6996.314231678781	79.33755188300616	377.3671164087016	6874.684530590441	-3.1503611073924827	255.13469206085995	7130.920375636243	1031.2765009616523	79.16282569086866	7067.81158970999	1087.0215100763933	30.583565866393037	6999.023493496345	1137.843296269222	-23.574225605249193	6929.284743620324	1174.585896798894	-80.36980804963947	6853.746823408367	1214.3991513759204	-139.39736310021527	6783.40165414057	1251.0920610939875	-190.5469378539902	6644.6979692667455	1329.6770673365386	-196.9987036283613	6899.109524138579	1202.3598969969087	-144.4441520184671	6957.126116976293	1192.8285047650768	-263.55399185493764	7040.946728709446	930.8511477662416	-296.68352809485634	7047.047557800304	782.1527049323863	-478.35638367260077	7053.064201187743	788.711870355866	-507.9528678555538	7035.387369878212	787.5570357068892	-533.9901314858851	7022.811403675409	783.7712058906332	-551.1845036066761	7012.099965786612	778.064439855662	-564.7162890658251	7055.106679337291	778.4650802735931	-507.87460927586955	7055.854507516684	762.4646549859752	-547.0449971579792	7043.323654555926	752.1863782380751	-571.2658931568947	7028.5278642602825	749.9368404798636	-582.3811291693769	7011.556058156877	750.8677666677133	-588.9216038285665	7053.737324819763	770.9532132453016	-503.81570114249564	7053.729771027082	751.2834649948062	-539.8267192584367	7039.856708526971	739.1296153820836	-565.5901239491377	7021.910420159646	735.9654273028151	-578.68044080509	7003.293656415735	736.7651731721686	-585.6814331248411	7052.881726581131	766.0230143396443	-499.98102604170225	7052.51531269878	744.0234381967047	-529.0204235491649	7040.218243828647	732.5025042407351	-550.7376468639202	7022.798607290627	728.9577973035208	-562.9722324081488	7005.242488682274	729.476332785996	-569.3691354392537	7050.8424904887825	761.0513726711749	-494.1704524822536	7049.688824166686	737.698059209398	-517.344749965082	7039.522197011658	727.1215395014755	-533.4564601651978	7026.6616448593795	723.8824998069583	-541.7618972006168	7011.020805673762	723.9657342656857	-547.0725452288848	6858.479005210669	1200.1653646687341	-93.9422724925096	6810.089452139295	1133.8559900300056	9.904306216081256	6957.910463851697	972.5652507608116	-158.99959245237025	7052.875153187276	848.905494493702	-371.2782291921396	7080.1739508008295	859.4844632895282	-392.93091797516456	7117.540080881259	852.2505499424622	-402.3667738108438	7142.691935162915	843.8821225639014	-409.1320182942651	7162.915751175145	834.0563780347744	-414.93796721087233	7078.714413846832	849.3382811209029	-397.3310944807429	7118.641095198497	834.0810698058128	-430.42763041088426	7150.943595437598	819.0675763780775	-444.2841988511615	7171.116152171807	811.2178129676463	-445.1361507474436	7187.873749869578	805.7216499010802	-440.6051507187981	7075.173401397279	840.601329401288	-396.2709813592535	7112.200063945464	820.9953385972904	-427.9815493834293	7146.857422403354	803.5038065718261	-442.8431262731139	7170.9112191324675	793.5012698411705	-443.7468107839357	7189.109171872539	787.2288070400941	-438.72870864941046	7071.609199884095	834.8378414376616	-394.77846154564077	7101.5708980115105	812.3218434279944	-422.19740524429704	7131.116350541915	795.9735099472645	-434.83530878186775	7153.9665712742535	785.7397022501534	-435.5394177326651	7170.910627133002	779.5645217787671	-430.7417204771775	7066.68810228288	828.4809326430152	-391.3036001993928	7091.001509866532	803.9719853455275	-414.6595181125877	7113.497236152308	789.258629385994	-424.1669413886128	7129.601613694017	781.0093271677001	-424.38421661921154	7144.2874670259425	775.0875045529484	-419.96370707981976
3	0.008	7198.941	914.58397	126.699	7254.42207220295	897.26220581004	53.25698458513169	7159.8388458504305	500.4154792291083	-42.00497261914348	7143.06946344956	108.96287575850414	-117.87732908986771	6991.252017642093	31.94089567398359	-30.94250443775712	7158.076103113248	905.909191571213	211.52880837391797	7067.521475875028	503.9406240071781	286.60464996580123	6996.288017581441	79.31272707256103	377.41939834147087	6874.655174900289	-3.1706272462550507	255.1869673443358	7130.90894838855	1031.2773755164792	79.17871817598646	7067.804265671968	1087.0295394698583	30.60246077352439	6999.0240240037965	1137.859741089087	-23.556922348366207	6929.298810445247	1174.6106979647532	-80.36296088341453	6853.7742455494035	1214.4325149948363	-139.40107452076688	6783.439122622245	1251.1312590968494	-190.55964696579312	6644.7138275595335	1329.6856986670255	-196.98576440778268	6899.159737217872	1202.4326968849593	-144.441398401769	6957.345142840537	1193.0692411059804	-263.59098122846433	7041.3879629728235	930.9134777301481	-297.1682215780904	7047.753918154696	782.4364808766557	-479.7664530542802	7053.805678400707	789.0681133110688	-509.41956197339056	7036.114231630012	787.9903214528317	-535.5684311318525	7023.529072539619	784.2551350707689	-552.8511455374644	7012.810813844823	778.5880140014356	-566.4656634062324	7055.861004327565	778.8169589980098	-509.38378213638873	7056.659397335125	762.9104324025104	-548.7484301737284	7044.131182341511	752.6987064738025	-573.1087157631596	7029.314438934488	750.4863706565611	-584.2891926484423	7012.310050165351	751.4452742838171	-590.8692203327789	7054.491022595287	771.2936966363834	-505.34719760540105	7054.53245824622	751.7093702500946	-541.5597648669043	7040.661986867013	739.6263341576037	-567.4775920211268	7022.690281330849	736.5061618695115	-580.6477331431963	7004.037799154958	737.3360986611942	-587.6925449707012	7053.634037921145	766.3530375380547	-501.5234023034262	7053.311340105698	744.4208975036862	-530.7530638903612	7041.016154834535	732.9597038165942	-552.6069360129993	7023.571802320148	729.4564015337373	-564.9196089412596	7005.982005001257	730.0028255223243	-571.3582300883463	7051.58900528292	761.3667238584394	-495.71922522532645	7050.473042282772	738.0662030710547	-519.0722573555945	7040.3071454611345	727.5341364793517	-535.295764529495	7027.428189033639	724.323660242879	-543.6593070445081	7011.757299398729	724.4306571168555	-549.0075713635079	6858.473530570916	1200.1524414306234	-93.94484355607466	6809.971038517451	1133.6332193572796	9.862461440153085	6957.926217440153	972.5256980434435	-159.59160822809662	7053.289303072391	849.1962577105007	-372.38347960690663	7080.688368017925	859.7920271854252	-394.03068118985595	7118.161443856113	852.5445107903021	-403.4593640946282	7143.385019711604	844.1689769305622	-410.23120465239197	7163.666269677612	834.3393326913043	-416.05256849836894	7079.228310522105	849.6601442625395	-398.4761420713878	7119.296532029077	834.440729789062	-431.6581456846053	7151.696688198793	819.4307102383716	-445.5515640813145	7171.920756912931	811.5657148728571	-446.3979313712031	7188.714784912556	806.0452130962625	-441.8430887143321	7075.674837228115	840.9272289220352	-397.4435051879632	7112.832813948246	821.3602938080196	-429.2523041853298	7147.594630104235	803.8729339700591	-444.1574116597992	7171.709564301615	793.8522034311908	-445.0559515942508	7189.94688747007	787.5531986288422	-440.0125357392259	7072.098238950089	835.1658829359624	-395.96853886896656	7102.166914217429	812.6874915013149	-423.49169849755845	7131.80105446496	796.3431200306727	-436.1707783993728	7154.708994878318	786.0919358214505	-436.87164286468817	7171.689475424016	779.8918810633799	-432.0509583565689	7067.158605504941	828.8083406765535	-392.5088919896153	7091.558813064802	804.33436255083	-415.97088565093	7114.121411782839	789.6245212214594	-425.515871446901	7130.265885024083	781.3627099431195	-425.7330004687	7144.982850644944	775.4189479586294	-421.2934057966255
4	0.013	7198.941	914.58397	126.699	7254.454547658104	897.2964538693774	53.26437372398076	7159.873095404658	500.4440445732538	-41.977843700354065	7143.049775472268	108.98956335852408	-117.83858686832903	6991.2327982269735	31.971301301883805	-30.89967409908586	7158.045784762132	905.8743617054201	211.51779876721577	7067.482430020183	503.90972823701895	286.6047935801837	6996.261812767688	79.28836662990268	377.4706639464363	6874.625888954631	-3.190481088510716	255.23820217036902	7130.897866718837	1031.2783477984847	79.19441427881333	7067.797412271277	1087.0376459658758	30.620989484299344	6999.025134194184	1137.8762516770332	-23.540123187406575	6929.313519468558	1174.6356012261595	-80.35666871975536	6853.802376120527	1214.4660129528131	-139.40540130667847	6783.477376798079	1251.1706434373498	-190.57303573875654	6644.730747401114	1329.6948282427215	-196.97418378851611	6899.210193844792	1202.5048444950226	-144.4391914918437	6957.561776310359	1193.305789505085	-263.626866655876	7041.821503131902	930.9757486833802	-297.6430720731375	7048.447980066815	782.7198518650871	-481.1541530296548	7054.534337543034	789.423713213917	-510.8623919024644	7036.828863377584	788.4226063528859	-537.1210957997974	7024.234928499406	784.7378150364258	-554.4908898982868	7013.510203192801	779.1101325620987	-568.1870624453892	7056.6023703809615	779.1681838963215	-510.86883863976345	7057.450868045347	763.355143059142	-550.4250093679893	7044.925613525783	753.209636749154	-574.9228307281196	7030.088499852647	751.0343042935875	-586.1676604408766	7013.052268740792	752.0210259393195	-592.7866845115182	7055.2318285908	771.6335406631878	-506.8545954220099	7055.321840989925	752.1342412127718	-543.2660513540835	7041.4543238074275	740.1216604277208	-569.3362893657036	7023.457909638763	737.0452658844981	-582.5851887739445	7004.770521681751	737.9052199078147	-589.6732136774608	7054.373510101808	766.6824424950512	-503.041761030559	7054.094184956735	744.8174040480897	-532.4593691141725	7041.8012118691195	733.4156422919503	-554.4481524577159	7024.332833258474	729.953517110375	-566.8378929051731	7006.710124378179	730.5276672691116	-573.3176659304185	7052.322806641527	761.68149021218	-497.2441631269462	7051.2442873213795	738.433476976325	-520.7739117602123	7041.079404415888	727.9456241073588	-537.1078591789789	7028.18255681395	724.7635489845502	-545.5287800492299	7012.482301996393	724.8941665617367	-550.9141687153286	6858.469204929661	1200.1404368905123	-93.94806998836242	6809.855272342321	1133.4158611223063	9.820273759981323	6957.93959429872	972.4887057841827	-160.17477098821476	7053.6937169707235	849.4854222539169	-373.47086333782056	7081.191299834615	860.0976452689704	-395.1120592675377	7118.769390773899	852.8364011460359	-404.53362559121615	7144.063394670058	844.4536727168377	-411.3120114719834	7164.401043836196	834.6200542529745	-417.14867095128204	7079.730748953513	849.9799956201138	-399.6023336331597	7119.938046226141	834.7978701633024	-432.86839538123695	7152.4341170409225	819.7911292072854	-446.79822084267454	7172.708750438301	811.9109077016749	-447.6392061815875	7189.538515899613	806.3661578432823	-443.0610110608569	7076.165037987001	841.2511384188531	-398.59700285346946	7113.452045908805	821.7227754025537	-430.5025658137827	7148.316457081821	804.2393793760292	-445.45070338534254	7172.491403820257	794.2004643080804	-446.3443349851925	7190.7673480513895	787.8750177684418	-441.27613772579184	7072.576263612399	835.491961027889	-397.1394994668559	7102.750061900537	813.0507608620655	-424.76546315170367	7132.4713081767695	796.7101753814443	-437.4852679877205	7155.435905404654	786.4416265852882	-438.1831077688836	7172.452116572237	780.2167932238352	-433.33993269454345	7067.618419184752	829.1338442025393	-393.6950533918956	7092.103925983108	804.6944847252618	-417.26179771496675	7114.732203922112	789.9880276380544	-426.8439670279755	7130.916033083774	781.7137211072308	-427.061101692582	7145.66351658413	775.748107453503	-422.6028569953341
